<mxfile host="app.diagrams.net" agent="Mozilla/5.0 (Macintosh; Intel Mac OS X 10_15_7) AppleWebKit/537.36 (KHTML, like Gecko) Chrome/127.0.0.0 Safari/537.36" version="24.7.7">
  <diagram name="第 1 页" id="ByEwwbCFmO5Taja0ZAnC">
    <mxGraphModel dx="1382" dy="761" grid="1" gridSize="10" guides="1" tooltips="1" connect="1" arrows="1" fold="1" page="1" pageScale="1" pageWidth="827" pageHeight="1169" math="0" shadow="0">
      <root>
        <mxCell id="0" />
        <mxCell id="1" parent="0" />
        <mxCell id="t1XACcfcCf3YgArYn2zM-1" value="前端" style="rounded=0;whiteSpace=wrap;html=1;" vertex="1" parent="1">
          <mxGeometry x="80" y="80" width="120" height="60" as="geometry" />
        </mxCell>
        <mxCell id="t1XACcfcCf3YgArYn2zM-2" value="" style="rounded=1;whiteSpace=wrap;html=1;" vertex="1" parent="1">
          <mxGeometry x="220" y="80" width="550" height="60" as="geometry" />
        </mxCell>
        <mxCell id="t1XACcfcCf3YgArYn2zM-3" value="鑫智安" style="rounded=0;whiteSpace=wrap;html=1;" vertex="1" parent="1">
          <mxGeometry x="240" y="85" width="110" height="50" as="geometry" />
        </mxCell>
        <mxCell id="t1XACcfcCf3YgArYn2zM-4" value="鑫管云" style="rounded=0;whiteSpace=wrap;html=1;" vertex="1" parent="1">
          <mxGeometry x="370" y="85" width="110" height="50" as="geometry" />
        </mxCell>
        <mxCell id="t1XACcfcCf3YgArYn2zM-5" value="工作台" style="rounded=0;whiteSpace=wrap;html=1;" vertex="1" parent="1">
          <mxGeometry x="510" y="85" width="110" height="50" as="geometry" />
        </mxCell>
        <mxCell id="t1XACcfcCf3YgArYn2zM-6" value="安全专家在线" style="rounded=0;whiteSpace=wrap;html=1;" vertex="1" parent="1">
          <mxGeometry x="640" y="85" width="110" height="50" as="geometry" />
        </mxCell>
        <mxCell id="t1XACcfcCf3YgArYn2zM-7" value="注册中心" style="rounded=0;whiteSpace=wrap;html=1;" vertex="1" parent="1">
          <mxGeometry x="80" y="170" width="120" height="340" as="geometry" />
        </mxCell>
        <mxCell id="t1XACcfcCf3YgArYn2zM-8" value="平台网关" style="rounded=0;whiteSpace=wrap;html=1;" vertex="1" parent="1">
          <mxGeometry x="220" y="170" width="550" height="40" as="geometry" />
        </mxCell>
        <mxCell id="t1XACcfcCf3YgArYn2zM-9" value="" style="rounded=0;whiteSpace=wrap;html=1;" vertex="1" parent="1">
          <mxGeometry x="220" y="220" width="550" height="60" as="geometry" />
        </mxCell>
        <mxCell id="t1XACcfcCf3YgArYn2zM-14" value="" style="rounded=0;whiteSpace=wrap;html=1;" vertex="1" parent="1">
          <mxGeometry x="220" y="300" width="550" height="210" as="geometry" />
        </mxCell>
        <mxCell id="t1XACcfcCf3YgArYn2zM-15" value="platform-organization" style="text;html=1;align=center;verticalAlign=middle;resizable=0;points=[];autosize=1;strokeColor=none;fillColor=none;" vertex="1" parent="1">
          <mxGeometry x="410" y="310" width="140" height="30" as="geometry" />
        </mxCell>
        <mxCell id="t1XACcfcCf3YgArYn2zM-16" value="" style="group" vertex="1" connectable="0" parent="1">
          <mxGeometry x="250" y="230" width="490" height="40" as="geometry" />
        </mxCell>
        <mxCell id="t1XACcfcCf3YgArYn2zM-10" value="xay" style="rounded=1;whiteSpace=wrap;html=1;" vertex="1" parent="t1XACcfcCf3YgArYn2zM-16">
          <mxGeometry width="85" height="40" as="geometry" />
        </mxCell>
        <mxCell id="t1XACcfcCf3YgArYn2zM-11" value="platform-admin" style="rounded=1;whiteSpace=wrap;html=1;" vertex="1" parent="t1XACcfcCf3YgArYn2zM-16">
          <mxGeometry x="117" width="85" height="40" as="geometry" />
        </mxCell>
        <mxCell id="t1XACcfcCf3YgArYn2zM-12" value="platform-crm" style="rounded=1;whiteSpace=wrap;html=1;" vertex="1" parent="t1XACcfcCf3YgArYn2zM-16">
          <mxGeometry x="233" width="85" height="40" as="geometry" />
        </mxCell>
        <mxCell id="t1XACcfcCf3YgArYn2zM-13" value="platform-insurance-hub" style="rounded=1;whiteSpace=wrap;html=1;" vertex="1" parent="t1XACcfcCf3YgArYn2zM-16">
          <mxGeometry x="350" width="140" height="40" as="geometry" />
        </mxCell>
        <mxCell id="t1XACcfcCf3YgArYn2zM-26" value="" style="group" vertex="1" connectable="0" parent="1">
          <mxGeometry x="530" y="345" width="190" height="155" as="geometry" />
        </mxCell>
        <mxCell id="t1XACcfcCf3YgArYn2zM-20" value="&lt;div style=&quot;background-color:#ffffff;color:#080808&quot;&gt;&lt;pre style=&quot;&quot;&gt;&lt;pre style=&quot;&quot;&gt;&lt;div&gt;&lt;pre style=&quot;&quot;&gt;&lt;span style=&quot;color: rgb(0, 0, 0);&quot;&gt;&lt;font style=&quot;font-size: 12px;&quot; face=&quot;Helvetica&quot;&gt;OrganizationEmployee&lt;/font&gt;&lt;/span&gt;&lt;/pre&gt;&lt;/div&gt;&lt;/pre&gt;&lt;/pre&gt;&lt;/div&gt;" style="rounded=1;whiteSpace=wrap;html=1;" vertex="1" parent="t1XACcfcCf3YgArYn2zM-26">
          <mxGeometry width="190" height="30" as="geometry" />
        </mxCell>
        <mxCell id="t1XACcfcCf3YgArYn2zM-22" value="&lt;div style=&quot;background-color:#ffffff;color:#080808&quot;&gt;&lt;pre style=&quot;&quot;&gt;&lt;pre style=&quot;&quot;&gt;&lt;pre style=&quot;&quot;&gt;&lt;pre style=&quot;&quot;&gt;&lt;div&gt;&lt;pre style=&quot;&quot;&gt;&lt;span style=&quot;color: rgb(0, 0, 0);&quot;&gt;&lt;font style=&quot;font-size: 12px;&quot; face=&quot;Helvetica&quot;&gt;OrganizationEmployeeRelation&lt;/font&gt;&lt;/span&gt;&lt;/pre&gt;&lt;/div&gt;&lt;/pre&gt;&lt;/pre&gt;&lt;/pre&gt;&lt;/pre&gt;&lt;/div&gt;" style="rounded=1;whiteSpace=wrap;html=1;" vertex="1" parent="t1XACcfcCf3YgArYn2zM-26">
          <mxGeometry y="83" width="190" height="30" as="geometry" />
        </mxCell>
        <mxCell id="t1XACcfcCf3YgArYn2zM-23" value="&lt;div style=&quot;background-color:#ffffff;color:#080808&quot;&gt;&lt;pre style=&quot;&quot;&gt;&lt;pre style=&quot;&quot;&gt;&lt;pre style=&quot;&quot;&gt;&lt;pre style=&quot;&quot;&gt;&lt;pre style=&quot;&quot;&gt;&lt;div&gt;&lt;pre style=&quot;&quot;&gt;&lt;span style=&quot;color: rgb(0, 0, 0);&quot;&gt;&lt;font style=&quot;font-size: 12px;&quot; face=&quot;Helvetica&quot;&gt;OrgRelationship&lt;/font&gt;&lt;/span&gt;&lt;/pre&gt;&lt;/div&gt;&lt;/pre&gt;&lt;/pre&gt;&lt;/pre&gt;&lt;/pre&gt;&lt;/pre&gt;&lt;/div&gt;" style="rounded=1;whiteSpace=wrap;html=1;" vertex="1" parent="t1XACcfcCf3YgArYn2zM-26">
          <mxGeometry y="42" width="190" height="30" as="geometry" />
        </mxCell>
        <mxCell id="t1XACcfcCf3YgArYn2zM-25" value="&lt;div style=&quot;background-color:#ffffff;color:#080808&quot;&gt;&lt;pre style=&quot;&quot;&gt;&lt;pre style=&quot;&quot;&gt;&lt;pre style=&quot;&quot;&gt;&lt;pre style=&quot;&quot;&gt;&lt;pre style=&quot;&quot;&gt;&lt;pre style=&quot;&quot;&gt;&lt;pre style=&quot;&quot;&gt;&lt;div&gt;&lt;pre style=&quot;&quot;&gt;&lt;span style=&quot;color: rgb(0, 0, 0);&quot;&gt;&lt;font style=&quot;font-size: 12px;&quot; face=&quot;Helvetica&quot;&gt;PositionEmployee&lt;/font&gt;&lt;/span&gt;&lt;/pre&gt;&lt;/div&gt;&lt;/pre&gt;&lt;/pre&gt;&lt;/pre&gt;&lt;/pre&gt;&lt;/pre&gt;&lt;/pre&gt;&lt;/pre&gt;&lt;/div&gt;" style="rounded=1;whiteSpace=wrap;html=1;" vertex="1" parent="t1XACcfcCf3YgArYn2zM-26">
          <mxGeometry y="125" width="190" height="30" as="geometry" />
        </mxCell>
        <mxCell id="t1XACcfcCf3YgArYn2zM-27" value="" style="group" vertex="1" connectable="0" parent="1">
          <mxGeometry x="244" y="350" width="170" height="150" as="geometry" />
        </mxCell>
        <mxCell id="t1XACcfcCf3YgArYn2zM-17" value="&lt;div style=&quot;background-color:#ffffff;color:#080808&quot;&gt;&lt;pre style=&quot;&quot;&gt;&lt;span style=&quot;color: rgb(0, 0, 0);&quot;&gt;&lt;font face=&quot;Helvetica&quot; style=&quot;font-size: 12px;&quot;&gt;Organization&lt;/font&gt;&lt;/span&gt;&lt;/pre&gt;&lt;/div&gt;" style="rounded=1;whiteSpace=wrap;html=1;" vertex="1" parent="t1XACcfcCf3YgArYn2zM-27">
          <mxGeometry width="170" height="30" as="geometry" />
        </mxCell>
        <mxCell id="t1XACcfcCf3YgArYn2zM-19" value="&lt;div style=&quot;background-color:#ffffff;color:#080808&quot;&gt;&lt;pre style=&quot;&quot;&gt;&lt;div&gt;&lt;pre style=&quot;&quot;&gt;&lt;span style=&quot;color: rgb(0, 0, 0);&quot;&gt;&lt;font style=&quot;font-size: 12px;&quot; face=&quot;Helvetica&quot;&gt;OrganizationAuth&lt;/font&gt;&lt;/span&gt;&lt;/pre&gt;&lt;/div&gt;&lt;/pre&gt;&lt;/div&gt;" style="rounded=1;whiteSpace=wrap;html=1;" vertex="1" parent="t1XACcfcCf3YgArYn2zM-27">
          <mxGeometry y="40" width="170" height="30" as="geometry" />
        </mxCell>
        <mxCell id="t1XACcfcCf3YgArYn2zM-21" value="&lt;div style=&quot;background-color:#ffffff;color:#080808&quot;&gt;&lt;pre style=&quot;&quot;&gt;&lt;pre style=&quot;&quot;&gt;&lt;pre style=&quot;&quot;&gt;&lt;div&gt;&lt;pre style=&quot;&quot;&gt;&lt;span style=&quot;color: rgb(0, 0, 0);&quot;&gt;&lt;font style=&quot;font-size: 12px;&quot; face=&quot;Helvetica&quot;&gt;OrganizationEmployeeAuth&lt;/font&gt;&lt;/span&gt;&lt;/pre&gt;&lt;/div&gt;&lt;/pre&gt;&lt;/pre&gt;&lt;/pre&gt;&lt;/div&gt;" style="rounded=1;whiteSpace=wrap;html=1;" vertex="1" parent="t1XACcfcCf3YgArYn2zM-27">
          <mxGeometry y="80" width="170" height="30" as="geometry" />
        </mxCell>
        <mxCell id="t1XACcfcCf3YgArYn2zM-24" value="&lt;div style=&quot;background-color:#ffffff;color:#080808&quot;&gt;&lt;pre style=&quot;&quot;&gt;&lt;pre style=&quot;&quot;&gt;&lt;pre style=&quot;&quot;&gt;&lt;pre style=&quot;&quot;&gt;&lt;pre style=&quot;&quot;&gt;&lt;pre style=&quot;&quot;&gt;&lt;div&gt;&lt;pre style=&quot;&quot;&gt;&lt;span style=&quot;color: rgb(0, 0, 0);&quot;&gt;&lt;font style=&quot;font-size: 12px;&quot; face=&quot;Helvetica&quot;&gt;Position&lt;/font&gt;&lt;/span&gt;&lt;/pre&gt;&lt;/div&gt;&lt;/pre&gt;&lt;/pre&gt;&lt;/pre&gt;&lt;/pre&gt;&lt;/pre&gt;&lt;/pre&gt;&lt;/div&gt;" style="rounded=1;whiteSpace=wrap;html=1;" vertex="1" parent="t1XACcfcCf3YgArYn2zM-27">
          <mxGeometry y="120" width="170" height="30" as="geometry" />
        </mxCell>
      </root>
    </mxGraphModel>
  </diagram>
</mxfile>
